<svg width="43" height="33" viewBox="0 0 43 33" fill="none" xmlns="http://www.w3.org/2000/svg">
<path d="M0 19.5127V21.9508H6.71651V23.1737H10.3854V24.4162C11.1239 24.4162 11.835 24.4162 12.5461 24.4162C12.7336 24.4162 12.8001 24.4709 12.7922 24.6624C12.7922 24.971 12.7922 25.2836 12.7922 25.6196H14.066C14.066 25.9596 14.066 26.2682 14.066 26.5808C14.066 26.7723 14.1207 26.8231 14.3121 26.8231C15.3515 26.8231 16.3947 26.8231 17.4379 26.8231H17.7388V30.4841H18.9461V31.7266H20.1613V32.9379H25.0062V29.7808H22.5915V26.8348H26.0104V28.3352V31.7383H27.456V32.9379H32.3401V29.7808H29.9176V25.6157H31.121V24.4084H33.6021C33.6021 24.7327 33.6021 25.5806 33.6021 25.5806H33.8482C34.8329 25.5806 35.8018 25.5806 36.7982 25.5806C36.9389 25.5806 37.5796 25.5806 37.7516 25.5806V23.1854H42.6356V20.7317H39.6895V19.5361H38.447V12.1944H37.2397V9.01395H40.9711C40.9711 9.01395 40.9711 7.65033 40.9711 7.31041H38.744V5.5756H42.9013V1.21515H39.4629V0H36.0089V1.17217H33.5786V2.42248H32.3518V12.1905H28.6985V11.0184H26.2331V12.1905H22.5837V13.4135H20.1456V14.6364H18.9266V15.8555H16.5041V17.0745H15.2382V18.2975H3.06717V19.5283L0 19.5127ZM37.3843 2.80929H38.6033V4.03225H37.3843V2.80929ZM36.0324 21.9781H37.732V23.1776H36.0324V21.9781Z" fill="#9EFF00"/>
</svg>
